<svg width="30" height="30" viewBox="0 0 30 30" fill="none" xmlns="http://www.w3.org/2000/svg">
<path fill-rule="evenodd" clip-rule="evenodd" d="M25.8712 22.3397C24.0759 21.7425 22.1456 21.2963 20.1141 21.0075C20.3906 19.3828 20.5378 17.6803 20.5847 15.9375H28.0894C27.9216 18.3009 27.1275 20.4881 25.8712 22.3397ZM18.2194 27.7116C18.8438 26.2031 19.3547 24.5728 19.7475 22.8553C21.4331 23.1047 23.0494 23.4731 24.5803 23.9569C22.8891 25.7597 20.6934 27.0863 18.2194 27.7116ZM15.9103 28.0791C15.6084 28.1006 15.3075 28.125 15 28.125C14.6925 28.125 14.3925 28.1006 14.0897 28.0791C13.2919 26.4178 12.6459 24.5691 12.1678 22.6069C13.0997 22.5253 14.0438 22.4775 15 22.4775C15.9562 22.4775 16.9003 22.5253 17.8331 22.6069C17.3541 24.5691 16.7081 26.4178 15.9103 28.0791ZM5.41969 23.9569C6.95063 23.4731 8.56688 23.1047 10.2525 22.8553C10.6453 24.5728 11.1562 26.2031 11.7806 27.7116C9.30656 27.0863 7.11188 25.7597 5.41969 23.9569ZM4.12876 22.3397C2.87251 20.4881 2.07843 18.3009 1.91062 15.9375H9.41531C9.46219 17.6803 9.60937 19.3828 9.88594 21.0075C7.85437 21.2963 5.92407 21.7425 4.12876 22.3397ZM4.12876 7.66033C5.92407 8.25752 7.85437 8.70467 9.88594 8.99248C9.60937 10.6172 9.46219 12.3197 9.41531 14.0625H1.91062C2.07843 11.6991 2.87251 9.51189 4.12876 7.66033ZM11.7806 2.28842C11.1562 3.79686 10.6453 5.42716 10.2525 7.14466C8.56688 6.89622 6.95063 6.52686 5.41969 6.04311C7.11188 4.2403 9.30656 2.91373 11.7806 2.28842ZM14.0897 1.92095C14.3925 1.90032 14.6925 1.875 15 1.875C15.3075 1.875 15.6084 1.90032 15.9103 1.92095C16.7081 3.5822 17.3541 5.43186 17.8331 7.39311C16.9003 7.47467 15.9562 7.52249 15 7.52249C14.0438 7.52249 13.0997 7.47467 12.1678 7.39311C12.6459 5.43186 13.2919 3.5822 14.0897 1.92095ZM18.7069 15.9375C18.6562 17.5884 18.5062 19.2122 18.2241 20.7713C17.1684 20.6794 16.095 20.625 15 20.625C13.905 20.625 12.8316 20.6794 11.7769 20.7713C11.4937 19.2122 11.3437 17.5884 11.2941 15.9375H18.7069ZM11.2941 14.0625C11.3437 12.4116 11.4937 10.7878 11.7769 9.22874C12.8316 9.32062 13.905 9.375 15 9.375C16.095 9.375 17.1684 9.32062 18.2231 9.22874C18.5063 10.7878 18.6562 12.4116 18.7069 14.0625H11.2941ZM24.5803 6.04311C23.0494 6.52686 21.4331 6.89622 19.7475 7.14466C19.3547 5.42716 18.8438 3.79686 18.2194 2.28842C20.6934 2.91373 22.8891 4.2403 24.5803 6.04311ZM25.8712 7.66033C27.1275 9.51189 27.9216 11.6991 28.0894 14.0625H20.5847C20.5378 12.3197 20.3906 10.6172 20.1141 8.99248C22.1456 8.70467 24.0759 8.25752 25.8712 7.66033ZM15 0C6.71625 0 0 6.71531 0 15C0 23.2847 6.71625 30 15 30C23.2838 30 30 23.2847 30 15C30 6.71531 23.2838 0 15 0Z" fill="#2F2F2F"/>
</svg>
