<svg width="160" height="101" viewBox="0 0 160 101" fill="none" xmlns="http://www.w3.org/2000/svg">
<g clip-path="url(#clip0_251_39)">
<g clip-path="url(#clip1_251_39)">
<g clip-path="url(#clip2_251_39)">
<g clip-path="url(#clip3_251_39)">
<g clip-path="url(#clip4_251_39)">
<g clip-path="url(#clip5_251_39)">
<g clip-path="url(#clip6_251_39)">
<g clip-path="url(#clip7_251_39)">
<g clip-path="url(#clip8_251_39)">
<path d="M42.3279 43.0588C43.2444 43.0588 43.8635 43.0264 44.1851 42.9616V43.4717C43.9117 43.5365 43.6625 43.6903 43.4374 43.9332C43.2123 44.1761 42.9469 44.5729 42.6414 45.1234L38.8547 51.9488V55.1551C38.8547 55.7704 38.9029 56.2157 38.9994 56.491C39.0959 56.7663 39.2776 56.9525 39.5445 57.0497C39.8082 57.1468 40.2295 57.2116 40.8084 57.244V57.7298C40.0687 57.6812 39.0477 57.6569 37.7452 57.6569C36.3624 57.6569 35.3333 57.6812 34.658 57.7298V57.244C35.2368 57.2116 35.6597 57.1468 35.9266 57.0497C36.1903 56.9525 36.3704 56.7663 36.4669 56.491C36.5634 56.2157 36.6116 55.7704 36.6116 55.1551V52.629L31.9566 44.8319C31.6511 44.3138 31.3986 43.9689 31.1993 43.7972C30.9966 43.6288 30.7828 43.5203 30.5577 43.4717V42.9616C31.5868 43.0264 32.2943 43.0588 32.6802 43.0588C33.7897 43.0588 34.9152 43.0264 36.0569 42.9616V43.4717C35.5102 43.4717 35.0921 43.5154 34.8027 43.6029C34.5132 43.6936 34.3685 43.8927 34.3685 44.2004C34.3685 44.4757 34.5052 44.8562 34.7785 45.342L38.4206 51.463L41.4113 46.1679C41.7651 45.5202 41.942 45.002 41.942 44.6133C41.942 43.9332 41.3872 43.5527 40.2777 43.4717V42.9616C40.8727 43.0264 41.5561 43.0588 42.3279 43.0588ZM55.8347 55.6895C56.2688 56.6934 56.8236 57.2116 57.4989 57.244V57.7298C56.8557 57.6812 55.9955 57.6569 54.9181 57.6569C53.5353 57.6569 52.5062 57.6812 51.8309 57.7298V57.244C52.4258 57.2116 52.8632 57.1307 53.143 57.0011C53.426 56.8716 53.5675 56.653 53.5675 56.3453C53.5675 56.0862 53.4549 55.7057 53.2298 55.2037L51.9997 52.4346H46.1387L45.3187 54.2564C45.0453 54.8879 44.9086 55.4061 44.9086 55.8109C44.9086 56.2319 45.0566 56.559 45.3524 56.7922C45.6515 57.0286 46.1307 57.1792 46.7899 57.244V57.7298C46.3076 57.6812 45.5759 57.6569 44.5951 57.6569C43.6142 57.6569 42.9148 57.6812 42.4967 57.7298V57.244C42.9309 57.1307 43.3007 56.8829 43.6062 56.5007C43.9117 56.1218 44.2011 55.6166 44.4745 54.9851L49.8048 42.8402H50.1908L55.8347 55.6895ZM46.3317 51.9488H51.8067L49.0813 45.7792L46.3317 51.9488ZM65.603 42.6216C66.5002 42.6216 67.227 42.7511 67.7833 43.0102C68.3397 43.2693 68.9314 43.666 69.5585 44.2004C69.7676 44.3623 69.9284 44.4433 70.0409 44.4433C70.3432 44.4433 70.5442 43.9494 70.6439 42.9616H71.1986C71.1311 43.8846 71.0973 45.504 71.0973 47.8196H70.5474C70.4188 47.2042 70.2612 46.6618 70.0747 46.1922C69.8914 45.7226 69.647 45.3096 69.3415 44.9534C68.8108 44.3381 68.2545 43.8685 67.6724 43.5446C67.0968 43.2207 66.3893 43.0588 65.5499 43.0588C64.5851 43.0588 63.7506 43.3535 63.0463 43.9429C62.3388 44.5356 61.7905 45.3825 61.4014 46.4837C61.0187 47.5848 60.8274 48.8802 60.8274 50.37C60.8274 52.8476 61.276 54.6693 62.1732 55.8352C63.0769 57.0011 64.4211 57.5841 66.2059 57.5841C66.8942 57.5841 67.5132 57.5193 68.0631 57.3897C68.3526 57.325 68.5487 57.2197 68.6516 57.074C68.7546 56.9282 68.806 56.7258 68.806 56.4667V54.3778C68.806 53.6977 68.7433 53.2038 68.6179 52.8961C68.4892 52.5885 68.2641 52.378 67.9425 52.2646C67.6209 52.1513 67.0984 52.0784 66.3748 52.046V51.5602C67.2399 51.6088 68.3719 51.6331 69.7708 51.6331C70.8642 51.6331 71.7019 51.6088 72.284 51.5602V52.046C71.9142 52.0784 71.6489 52.1432 71.4881 52.2403C71.3273 52.3375 71.2147 52.5237 71.1504 52.799C71.0829 53.0743 71.0491 53.5196 71.0491 54.1349V57.7298H70.5667C70.5378 57.3412 70.4172 57.1468 70.2049 57.1468C70.1117 57.1468 69.9364 57.2035 69.6791 57.3169C69.4186 57.4302 69.2418 57.5031 69.1485 57.5355C68.1162 57.8917 67.0614 58.0699 65.984 58.0699C63.5721 58.0699 61.7085 57.4173 60.3932 56.1121C59.0747 54.8102 58.4154 52.9852 58.4154 50.6372C58.4154 49.0179 58.7209 47.6042 59.332 46.3962C59.943 45.1914 60.7904 44.2603 61.8741 43.6029C62.9579 42.9487 64.2008 42.6216 65.603 42.6216ZM81.758 42.6216C83.2374 42.6216 84.5366 42.9163 85.6557 43.5057C86.7716 44.0984 87.6351 44.9647 88.2461 46.1047C88.8571 47.248 89.1627 48.6131 89.1627 50.2C89.1627 51.7545 88.8459 53.1261 88.2124 54.3147C87.5756 55.5065 86.6945 56.4295 85.5689 57.0837C84.4433 57.7411 83.165 58.0699 81.7339 58.0699C80.2546 58.0699 78.957 57.7735 77.8411 57.1809C76.7219 56.5914 75.8569 55.7251 75.2458 54.5818C74.6348 53.4419 74.3293 52.0784 74.3293 50.4915C74.3293 48.9369 74.6477 47.5637 75.2844 46.3719C75.918 45.1833 76.7975 44.2603 77.9231 43.6029C79.0486 42.9487 80.327 42.6216 81.758 42.6216ZM81.6616 43.0588C80.6807 43.0588 79.8173 43.3697 79.0712 43.9915C78.3219 44.6166 77.7462 45.4829 77.3442 46.5905C76.9422 47.7014 76.7412 48.9693 76.7412 50.3943C76.7412 51.8355 76.9664 53.1067 77.4166 54.2078C77.8668 55.3089 78.4778 56.1558 79.2496 56.7485C80.0215 57.3379 80.8817 57.6326 81.8304 57.6326C82.8113 57.6326 83.6763 57.3201 84.4256 56.6951C85.1717 56.0732 85.7458 55.2069 86.1478 54.0961C86.5497 52.9884 86.7507 51.7221 86.7507 50.2971C86.7507 48.8559 86.5256 47.5848 86.0754 46.4837C85.6252 45.3825 85.0141 44.5356 84.2423 43.9429C83.4705 43.3535 82.6103 43.0588 81.6616 43.0588ZM97.8215 42.9616C100.33 42.9616 102.216 43.5721 103.48 44.7931C104.74 46.0173 105.371 47.8034 105.371 50.1514C105.371 51.6736 105.065 53.0046 104.454 54.1446C103.843 55.2879 102.956 56.1704 101.792 56.7922C100.624 57.4173 99.2284 57.7298 97.6044 57.7298L96.2055 57.7055C95.305 57.6731 94.6458 57.6569 94.2277 57.6569C92.9092 57.6569 91.9123 57.6812 91.2369 57.7298V57.244C91.8158 57.2116 92.2387 57.1468 92.5056 57.0497C92.7693 56.9525 92.9494 56.7663 93.0459 56.491C93.1423 56.2157 93.1906 55.7704 93.1906 55.1551V45.5364C93.1906 44.921 93.1423 44.4757 93.0459 44.2004C92.9494 43.9251 92.7693 43.7389 92.5056 43.6418C92.2387 43.5446 91.8158 43.4798 91.2369 43.4474V42.9616C91.7997 43.0102 92.5796 43.0345 93.5765 43.0345L95.6266 43.0102C96.72 42.9778 97.4516 42.9616 97.8215 42.9616ZM97.2185 43.3989C96.72 43.3989 96.347 43.4555 96.0994 43.5689C95.8485 43.6822 95.6749 43.8846 95.5784 44.1761C95.4819 44.4676 95.4337 44.9048 95.4337 45.4878V55.2037C95.4337 55.7866 95.4819 56.2238 95.5784 56.5153C95.6749 56.8068 95.8485 57.0092 96.0994 57.1226C96.347 57.2359 96.7281 57.2926 97.2426 57.2926C98.7059 57.2926 99.8555 57.0286 100.692 56.5007C101.528 55.9761 102.115 55.2037 102.452 54.1835C102.79 53.1633 102.959 51.8517 102.959 50.2486C102.959 47.8844 102.525 46.1517 101.656 45.0506C100.788 43.9494 99.3088 43.3989 97.2185 43.3989ZM120.132 55.7623C120.695 56.4748 121.322 56.9687 122.013 57.244V57.7298C121.241 57.6812 120.341 57.6569 119.312 57.6569C118.218 57.6569 117.197 57.6812 116.249 57.7298V57.244C116.763 57.2278 117.133 57.1825 117.358 57.108C117.583 57.0367 117.696 56.9282 117.696 56.7825C117.696 56.6206 117.591 56.4101 117.382 56.151L114.174 51.6574C113.853 51.204 113.515 50.8752 113.161 50.6712C112.808 50.4704 112.317 50.3619 111.69 50.3457V55.1551C111.69 55.7704 111.738 56.2157 111.835 56.491C111.931 56.7663 112.111 56.9525 112.375 57.0497C112.642 57.1468 113.065 57.2116 113.644 57.244V57.7298C112.904 57.6812 111.883 57.6569 110.581 57.6569C109.198 57.6569 108.169 57.6812 107.493 57.7298V57.244C108.072 57.2116 108.493 57.1468 108.757 57.0497C109.024 56.9525 109.206 56.7663 109.302 56.491C109.399 56.2157 109.447 55.7704 109.447 55.1551V45.5364C109.447 44.921 109.399 44.4757 109.302 44.2004C109.206 43.9251 109.024 43.7389 108.757 43.6418C108.493 43.5446 108.072 43.4798 107.493 43.4474V42.9616C108.169 43.0102 109.198 43.0345 110.581 43.0345C111.867 43.0345 112.888 43.0102 113.644 42.9616V43.4474C113.065 43.4798 112.642 43.5446 112.375 43.6418C112.111 43.7389 111.931 43.9251 111.835 44.2004C111.738 44.4757 111.69 44.921 111.69 45.5364V49.9328C112.253 49.9004 112.783 49.766 113.282 49.5296C113.78 49.2964 114.327 48.8883 114.922 48.3054L117.792 45.342C118.21 44.9534 118.419 44.5891 118.419 44.249C118.419 44.0061 118.299 43.8118 118.058 43.666C117.816 43.5203 117.463 43.4393 116.996 43.4231V42.9616C117.865 43.0102 118.813 43.0345 119.842 43.0345C120.534 43.0345 121.105 43.0102 121.555 42.9616V43.4231C120.976 43.5365 120.494 43.7065 120.108 43.9332C119.722 44.1599 119.223 44.5729 118.612 45.172L114.826 48.9855L120.132 55.7623ZM129.418 42.9616V43.4474C128.839 43.4798 128.416 43.5446 128.149 43.6418C127.885 43.7389 127.705 43.9251 127.609 44.2004C127.512 44.4757 127.464 44.921 127.464 45.5364V55.1551C127.464 55.7704 127.512 56.2157 127.609 56.491C127.705 56.7663 127.885 56.9525 128.149 57.0497C128.416 57.1468 128.839 57.2116 129.418 57.244V57.7298C128.678 57.6812 127.657 57.6569 126.355 57.6569C124.972 57.6569 123.943 57.6812 123.267 57.7298V57.244C123.846 57.2116 124.267 57.1468 124.531 57.0497C124.798 56.9525 124.98 56.7663 125.076 56.491C125.173 56.2157 125.221 55.7704 125.221 55.1551V45.5364C125.221 44.921 125.173 44.4757 125.076 44.2004C124.98 43.9251 124.798 43.7389 124.531 43.6418C124.267 43.5446 123.846 43.4798 123.267 43.4474V42.9616C123.943 43.0102 124.972 43.0345 126.355 43.0345C127.641 43.0345 128.662 43.0102 129.418 42.9616Z" fill="black"/>
</g>
</g>
</g>
</g>
</g>
</g>
</g>
<path d="M0 50.3457C0 22.5407 22.3825 0 49.9923 0C74.3608 0 94.657 17.5587 99.0868 40.7979H98.3822C93.9621 17.9456 73.9773 0.69653 49.9923 0.69653C22.7643 0.69653 0.691642 22.9252 0.691642 50.3457C0.691642 77.7662 22.7643 99.9949 49.9923 99.9949C73.9773 99.9949 93.9621 82.7458 98.3822 59.8935H99.0868C94.657 83.1331 74.3608 100.691 49.9923 100.691C22.3825 100.691 0 78.1507 0 50.3457Z" fill="black"/>
</g>
</g>
<defs>
<clipPath id="clip0_251_39">
<rect width="159.975" height="100.691" fill="white"/>
</clipPath>
<clipPath id="clip1_251_39">
<rect width="159.975" height="100.691" fill="white"/>
</clipPath>
<clipPath id="clip2_251_39">
<rect width="98.8649" height="15.4483" fill="white" transform="translate(30.5553 42.6216)"/>
</clipPath>
<clipPath id="clip3_251_39">
<rect width="98.8649" height="15.4483" fill="white" transform="translate(30.5553 42.6216)"/>
</clipPath>
<clipPath id="clip4_251_39">
<rect width="98.8649" height="15.4483" fill="white" transform="translate(30.5553 42.6216)"/>
</clipPath>
<clipPath id="clip5_251_39">
<rect width="98.8649" height="15.4483" fill="white" transform="translate(30.5553 42.6216)"/>
</clipPath>
<clipPath id="clip6_251_39">
<rect width="98.8649" height="15.4483" fill="white" transform="translate(30.5553 42.6216)"/>
</clipPath>
<clipPath id="clip7_251_39">
<rect width="98.8649" height="15.4483" fill="white" transform="translate(30.5553 42.6216)"/>
</clipPath>
<clipPath id="clip8_251_39">
<rect width="98.8649" height="15.4483" fill="white" transform="translate(30.5553 42.6216)"/>
</clipPath>
</defs>
</svg>
