<svg width="29" height="30" viewBox="0 0 29 30" fill="none" xmlns="http://www.w3.org/2000/svg">
<path d="M14.3334 15C16.5425 15 18.3334 13.2091 18.3334 11C18.3334 8.79086 16.5425 7 14.3334 7C12.1242 7 10.3334 8.79086 10.3334 11C10.3334 13.2091 12.1242 15 14.3334 15Z" stroke="#2F2F2F" stroke-width="2"/>
<path d="M22.2922 25.6667C22.08 21.8113 20.8996 19 14.3332 19C7.76699 19 6.58659 21.8113 6.37439 25.6667" stroke="#2F2F2F" stroke-width="2" stroke-linecap="round"/>
<path d="M7.66667 3.45026C9.62783 2.3158 11.9048 1.6665 14.3333 1.6665C21.6971 1.6665 27.6667 7.63604 27.6667 14.9998C27.6667 22.3636 21.6971 28.3332 14.3333 28.3332C6.96953 28.3332 1 22.3636 1 14.9998C1 12.5713 1.64929 10.2943 2.78376 8.33317" stroke="#2F2F2F" stroke-width="2" stroke-linecap="round"/>
</svg>
