<svg width="29" height="30" viewBox="0 0 29 30" fill="none" xmlns="http://www.w3.org/2000/svg">
<path fill-rule="evenodd" clip-rule="evenodd" d="M14.1602 0C17.9444 0 21.0706 2.88343 21.456 6.57123L21.5636 6.5725C23.6628 6.5725 26.2152 7.96668 27.0766 11.8771L28.2189 20.7185C28.6286 23.572 28.1161 25.8609 26.693 27.5026C25.2771 29.1357 23.0359 30 20.2114 30H8.12555C5.02302 30 2.86152 29.2399 1.51656 27.6778C0.165812 26.1113 -0.285886 23.7616 0.174499 20.6953L1.29795 11.9712C2.03631 7.97103 4.73636 6.5725 6.82691 6.5725C7.00739 4.90827 7.75781 3.32505 8.9483 2.13833C10.3164 0.77889 12.2028 0 14.1298 0H14.1602ZM21.5636 8.74412H6.82691C6.18846 8.74412 4.05447 9.00182 3.44207 12.3085L2.32441 20.995C1.96102 23.4316 2.24189 25.1949 3.16121 26.2619C4.06895 27.3159 5.69333 27.8284 8.12555 27.8284H20.2114C21.7286 27.8284 23.8003 27.5258 25.0512 26.0809C26.0444 24.9358 26.386 23.2303 26.0675 21.0109L24.9397 12.2491C24.4591 10.0905 23.1908 8.74412 21.5636 8.74412ZM18.3826 12.7748C18.9819 12.7748 19.5017 13.2613 19.5017 13.8606C19.5017 14.46 19.0485 14.9464 18.4492 14.9464H18.3826C17.7832 14.9464 17.2968 14.46 17.2968 13.8606C17.2968 13.2613 17.7832 12.7748 18.3826 12.7748ZM9.94204 12.7748C10.5414 12.7748 11.0612 13.2613 11.0612 13.8606C11.0612 14.46 10.6066 14.9464 10.0072 14.9464H9.94204C9.34267 14.9464 8.85623 14.46 8.85623 13.8606C8.85623 13.2613 9.34267 12.7748 9.94204 12.7748ZM14.1559 2.17163H14.1341C12.7718 2.17163 11.4442 2.72032 10.4815 3.67729C9.69723 4.45801 9.18431 5.48436 9.01839 6.57182L19.2674 6.57223C18.8954 4.08465 16.7443 2.17163 14.1559 2.17163Z" fill="#2F2F2F"/>
</svg>
