<svg width="30" height="21" viewBox="0 0 30 21" fill="none" xmlns="http://www.w3.org/2000/svg">
<path d="M1 3.61391C1 2.54586 1.71937 2.12426 2.60474 2.06805L6.72727 2.09615C6.97628 2.09615 7.19763 2.26479 7.28063 2.51775C8.22134 5.60947 9.3834 7.52071 10.7668 9.68491C10.8498 9.85355 10.9881 9.93787 11.1265 9.93787C11.2372 9.93787 11.3478 9.88166 11.4308 9.74112L11.5138 9.43195L11.5415 4.56953C11.5415 3.86686 11.2095 3.75444 10.4348 3.64201C10.1304 3.5858 9.93676 3.30473 9.93676 3.02367C9.93676 2.96746 9.93676 2.91124 9.96443 2.85503C10.3518 1.64645 11.5692 1.02811 13.2846 1.02811L14.834 1C16.1067 1 17.2688 1.56213 17.2688 3.22041V9.60059C17.3794 9.68491 17.4901 9.74112 17.6285 9.74112C17.8498 9.74112 18.1265 9.60059 18.3478 9.23521C19.7866 7.18343 21.419 4.73817 21.6403 3.44527C21.6403 3.38905 21.668 3.36095 21.6957 3.30473C22 2.68639 22.7747 2.26479 23.1067 2.15237C23.1621 2.12426 23.2451 2.09615 23.3557 2.09615H27.6443L27.9209 2.12426C28.336 2.12426 28.6403 2.40533 28.7787 2.65828C29.0277 3.05178 28.9723 3.47337 29 3.64201V3.83876C28.585 6.39645 25.7075 9.26331 24.4901 11.1183C24.3241 11.3432 24.2411 11.5399 24.2411 11.7367C24.2411 11.9053 24.3241 12.074 24.4625 12.2426L28.502 17.4142C28.7233 17.7234 28.834 18.0888 28.834 18.3979C28.834 19.3254 27.9763 19.8595 27.1462 19.9438L26.6759 19.9719H22.4704C22.3874 19.9719 22.332 20 22.249 20C21.7787 20 21.3913 19.747 21.1146 19.466C20.2292 18.3698 19.3715 17.2456 18.5138 16.1494C18.3478 15.9246 18.2925 15.8964 18.1265 15.784C17.9328 16.5991 17.7668 17.4423 17.5731 18.2855L17.4901 18.7633C17.3518 19.2692 16.9921 19.8033 16.3281 19.9438L15.9407 19.9719H13.2292C8.44269 19.9719 4.15415 13.0577 1.13834 4.42899C1.05534 4.20414 1 3.89497 1 3.61391ZM17.6285 10.8935C16.9091 10.8935 16.1067 10.4719 16.1067 9.68491V3.22041C16.1067 2.46154 15.7747 2.18047 14.8617 2.18047L13.2846 2.23669C12.3992 2.23669 11.9012 2.37722 11.4862 2.65828C12.1225 2.96746 12.7036 3.38905 12.7036 4.56953V9.51627C12.6206 10.5 11.8182 11.1465 11.0435 11.1465C10.5178 11.1465 10.0474 10.8373 9.77075 10.3314C8.52569 8.42012 7.47431 6.6213 6.56126 4.0355L6.31225 3.30473L2.63241 3.27663C2.13439 3.27663 2.18972 3.30473 2.18972 3.55769C2.18972 3.72633 2.21739 3.95118 2.24506 4.09172L2.82609 5.66568C5.8419 13.5917 9.63241 18.7914 13.2292 18.7914H15.996C16.3834 18.7914 16.3557 18.3136 16.4387 18.0325L16.9644 15.5592C17.0751 15.3062 17.1581 15.0814 17.3518 14.8846C17.5731 14.6598 17.8221 14.5754 18.0711 14.5754C18.5968 14.5754 19.0949 14.997 19.4269 15.3905L21.7787 18.426C21.9723 18.7352 22.1383 18.7914 22.249 18.7914H26.8142C27.2569 18.7914 27.6443 18.6509 27.6443 18.3698C27.6443 18.2855 27.6166 18.1731 27.5613 18.0888L23.5494 13.0015C23.2174 12.5799 23.0791 12.1583 23.0791 11.7367C23.0791 11.287 23.2451 10.8373 23.5217 10.4438C24.6838 8.67308 27.1739 6.14349 27.7549 4.06361L27.8379 3.69822C27.8103 3.55769 27.8103 3.44527 27.7826 3.30473H23.4387C23.1621 3.41716 22.9407 3.5858 22.7747 3.81065L22.6087 4.34467C21.9723 6.14349 20.2292 8.61686 18.9842 10.3314C18.5692 10.7249 18.0988 10.8935 17.6285 10.8935Z" fill="#DDD9D6" stroke="white" stroke-width="0.03125"/>
</svg>
